<?xml version="1.0" encoding="UTF-8"?>
<svg width="323px" height="120px" viewBox="0 0 323 120" version="1.1" xmlns="http://www.w3.org/2000/svg" xmlns:xlink="http://www.w3.org/1999/xlink">
    <title>18-en-w</title>
    <defs>
        <polygon id="path-1" points="0 120 323 120 323 0 0 0"></polygon>
    </defs>
    <g id="页面-1" stroke="none" stroke-width="1" fill="none" fill-rule="evenodd">
        <g id="阿语物料" transform="translate(-388, -797)">
            <g id="18-en-w" transform="translate(388, 797)">
                <path d="M311.801423,0.0990352887 C317.982883,0.0990352887 322.995805,5.101748 322.995805,11.2749743 L322.995805,108.823893 C322.995805,114.997119 317.982883,119.999832 311.801423,119.999832 L55.5709985,119.999832 C48.1115833,119.999832 42.0633243,113.96389 42.0633243,106.515311 L42.0633243,13.074928 C42.0633243,5.9078771 47.8833962,0.0990352887 55.0604904,0.0990352887 L311.801423,0.0990352887 Z M311.801423,4.37571197 L55.0604904,4.37571197 C50.2434925,4.37571197 46.340001,8.27167145 46.340001,13.074928 L46.340001,106.515311 C46.340001,111.599993 50.4715771,115.723155 55.5709985,115.723155 L311.801423,115.723155 C315.622889,115.723155 318.719128,112.633222 318.719128,108.823893 L318.719128,11.2749743 C318.719128,7.46564518 315.622889,4.37571197 311.801423,4.37571197 Z" id="Stroke-1" fill="#FFFFFF" fill-rule="nonzero"></path>
                <path d="M104.315341,28.7631098 L68.3144099,5.78070157 C60.7090184,0.924777738 50.9689279,0.924777738 43.3635364,5.78070157 L7.36344773,28.7631098 C4.13275694,30.8262048 2.14295469,34.6362891 2.14295469,38.7616385 L2.14295469,78.4917716 C2.14295469,84.4355703 5.01056132,89.9270687 9.66494635,92.898968 L42.774683,114.036024 C50.7389465,119.12062 60.9389997,119.12062 68.9032633,114.036024 L102.013842,92.898968 C106.668227,89.9270687 109.535834,84.4355703 109.535834,78.4917716 L109.535834,38.7616385 C109.535834,34.6362891 107.546032,30.8262048 104.315341,28.7631098" id="Fill-3" fill="#FF0019"></path>
                <path d="M42.2127957,3.97840117 C50.5199281,-1.32557325 61.1580182,-1.32557325 69.4650216,3.97831886 L105.465953,26.9607271 C109.326417,29.4259907 111.674172,33.9222347 111.674172,38.7616385 L111.674172,78.4917716 C111.674172,85.1495978 108.448632,91.3273183 103.164446,94.7013556 L70.0539297,115.838372 C61.3879606,121.370956 50.2899857,121.370956 41.6240581,115.838399 L8.51416519,94.7012426 C3.23015624,91.3273183 0.00461634398,85.1495978 0.00461634398,78.4917716 L0.00461634398,38.7616385 C0.00461634398,33.9222347 2.35237183,29.4259907 6.21281683,26.9607393 L42.2127957,3.97840117 Z M67.1636692,7.58300197 C60.2600185,3.17512873 51.4179277,3.17512873 44.5141673,7.58307206 L8.51432687,30.5653218 C5.91264482,32.2267365 4.28129303,35.3509783 4.28129303,38.7616385 L4.28129303,78.4917716 C4.28129303,83.720853 6.79042607,88.526474 10.8155713,91.0965937 L43.9253494,112.233676 C51.1879074,116.870285 60.4900389,116.870285 67.7526592,112.233637 L100.863061,91.0966935 C104.888363,88.526474 107.397496,83.720853 107.397496,78.4917716 L107.397496,38.7616385 C107.397496,35.3509783 105.766144,32.2267365 103.164462,30.5653218 L67.1636692,7.58300197 Z" id="Stroke-5" fill="#FFFFFF" fill-rule="nonzero"></path>
                <path d="M125.940414,69.8752811 L125.940414,73.6483743 L127.277339,73.6483743 C128.196422,73.6483743 128.861093,73.4953656 129.272196,73.1893482 C129.682455,72.8841716 129.888007,72.3763845 129.888007,71.6676685 C129.888007,70.4730238 129.017784,69.8752811 127.277339,69.8752811 L125.940414,69.8752811 Z M127.904101,76.524433 L125.940414,76.524433 L125.940414,81.3811976 L122.473003,81.3811976 L122.473003,66.9992223 L127.904101,66.9992223 C129.643704,66.9992223 130.987368,67.3951954 131.934251,68.1871414 C132.881134,68.9790874 133.354576,70.1392631 133.354576,71.6676685 C133.354576,73.2238172 132.874395,74.4226655 131.914033,75.2633725 C130.952829,76.1040795 129.615904,76.524433 127.904101,76.524433 L127.904101,76.524433 Z" id="Fill-7" fill="#FFFFFF"></path>
                <polygon id="Fill-9" fill="#FFFFFF" points="135.025689 66.9988861 138.493101 66.9988861 138.493101 78.5048025 144.132278 78.5048025 144.132278 81.3808613 135.025689 81.3808613"></polygon>
                <path d="M152.757675,76.0450619 L151.441811,71.7927657 L150.105728,76.0450619 L152.757675,76.0450619 Z M149.206864,78.9211207 L148.455423,81.3810294 L144.75803,81.3810294 L149.771287,66.9990542 L153.112335,66.9990542 L158.125592,81.3810294 L154.428199,81.3810294 L153.655697,78.9211207 L149.206864,78.9211207 Z" id="Fill-11" fill="#FFFFFF"></path>
                <polygon id="Fill-13" fill="#FFFFFF" points="161.487953 75.6279871 156.996998 66.9989701 160.986712 66.9989701 163.221659 71.9389647 165.455764 66.9989701 169.445478 66.9989701 164.954522 75.6279871 164.954522 81.3809454 161.487953 81.3809454"></polygon>
                <path d="M179.595491,69.8752811 L179.595491,73.0640829 L181.140494,73.0640829 C181.990498,73.0640829 182.60294,72.9573131 182.979503,72.7412514 C183.355223,72.5260304 183.543083,72.1191282 183.543083,71.5222262 C183.543083,70.9101915 183.347641,70.483953 182.958442,70.240148 C182.5684,69.9971836 181.962698,69.8752811 181.140494,69.8752811 L179.595491,69.8752811 Z M184.712366,75.336514 L187.595136,81.3811976 L183.793283,81.3811976 L181.391536,75.9409824 L179.595491,75.9409824 L179.595491,81.3811976 L176.128079,81.3811976 L176.128079,66.9992223 L181.559178,66.9992223 C183.270981,66.9992223 184.607905,67.3884697 185.56911,68.1661237 C186.529471,68.9446184 187.009652,70.0627588 187.009652,71.5222262 C187.009652,73.3701003 186.24389,74.6412493 184.712366,75.336514 L184.712366,75.336514 Z" id="Fill-15" fill="#FFFFFF"></path>
                <polygon id="Fill-17" fill="#FFFFFF" points="189.369784 81.3807772 189.369784 66.998802 198.476372 66.998802 198.476372 69.8748608 192.837195 69.8748608 192.837195 72.5012295 197.84961 72.5012295 197.84961 75.378129 192.837195 75.378129 192.837195 78.5047185 198.476372 78.5047185 198.476372 81.3807772"></polygon>
                <path d="M210.527396,69.1457996 L207.95885,70.9802224 C207.680008,70.507745 207.345566,70.1706215 206.955525,69.9688518 C206.565483,69.7679228 206.044023,69.667038 205.389461,69.667038 C204.289257,69.667038 203.739155,70.0840287 203.739155,70.9171693 C203.739155,71.3350007 203.934597,71.6822127 204.324639,71.9596461 C204.713838,72.2379201 205.37514,72.5086278 206.308544,72.7726098 C207.895668,73.2307951 209.009351,73.7940688 209.649592,74.4607495 C210.304154,75.1417222 210.631857,76.0866769 210.631857,77.2956136 C210.631857,78.6298157 210.192955,79.6790181 209.315993,80.4432207 C208.439031,81.2074234 207.198985,81.5891044 205.598382,81.5891044 C204.247136,81.5891044 203.116605,81.4049896 202.204261,81.0367599 C201.29276,80.6693709 200.502567,80.0674247 199.833684,79.234284 L202.423291,77.420879 C203.119974,78.2826037 204.080336,78.7130457 205.306061,78.7130457 C205.918502,78.7130457 206.381835,78.6020723 206.695216,78.379285 C207.007755,78.1573383 207.164445,77.851321 207.164445,77.4620736 C207.164445,77.0450829 206.976585,76.7054373 206.600865,76.4406146 C206.294223,76.2043759 205.577321,75.8991992 204.449317,75.5234032 C202.987714,75.0517665 201.926261,74.4573867 201.264117,73.741945 C200.602815,73.0265033 200.272586,72.0916371 200.272586,70.938187 C200.272586,69.6603123 200.707276,68.6489418 201.577498,67.9057567 C202.447721,67.1625717 203.704616,66.7909792 205.348182,66.7909792 C207.77099,66.7909792 209.496271,67.5753589 210.527396,69.1457996" id="Fill-19" fill="#FFFFFF"></path>
                <path d="M216.187044,69.8752811 L216.187044,73.6483743 L217.523969,73.6483743 C218.443052,73.6483743 219.107724,73.4953656 219.518826,73.1893482 C219.929086,72.8841716 220.134637,72.3763845 220.134637,71.6676685 C220.134637,70.4730238 219.264414,69.8752811 217.523969,69.8752811 L216.187044,69.8752811 Z M218.150732,76.524433 L216.187044,76.524433 L216.187044,81.3811976 L212.719633,81.3811976 L212.719633,66.9992223 L218.150732,66.9992223 C219.890334,66.9992223 221.233998,67.3951954 222.180881,68.1871414 C223.127764,68.9790874 223.601206,70.1392631 223.601206,71.6676685 C223.601206,73.2238172 223.121025,74.4226655 222.160663,75.2633725 C221.199459,76.1040795 219.862534,76.524433 218.150732,76.524433 L218.150732,76.524433 Z" id="Fill-21" fill="#FFFFFF"></path>
                <path d="M228.426013,73.0644192 L228.426013,75.3158326 C228.426013,77.5806974 229.163975,78.7131297 230.6399,78.7131297 C232.115824,78.7131297 232.853786,77.5806974 232.853786,75.3158326 L232.853786,73.0644192 C232.853786,70.7995544 232.115824,69.667122 230.6399,69.667122 C229.163975,69.667122 228.426013,70.7995544 228.426013,73.0644192 M236.321198,73.0644192 L236.321198,75.3158326 C236.321198,77.3444587 235.812375,78.8972446 234.796413,79.9741903 C233.779609,81.051136 232.394666,81.5891885 230.6399,81.5891885 C228.885976,81.5891885 227.500191,81.051136 226.483387,79.9741903 C225.467425,78.8972446 224.959444,77.3444587 224.959444,75.3158326 L224.959444,73.0644192 C224.959444,71.0215011 225.463213,69.4653524 226.473277,68.3951323 C227.4825,67.325753 228.871655,66.7910633 230.6399,66.7910633 C232.408145,66.7910633 233.796457,67.325753 234.806522,68.3951323 C235.815744,69.4653524 236.321198,71.0215011 236.321198,73.0644192" id="Fill-23" fill="#FFFFFF"></path>
                <polygon id="Fill-25" fill="#FFFFFF" points="246.826461 75.0652178 246.826461 66.9986339 250.084952 66.9986339 250.084952 81.3806091 247.285581 81.3806091 241.980846 73.4191135 241.980846 81.3806091 238.722355 81.3806091 238.722355 66.9986339 241.479605 66.9986339"></polygon>
                <path d="M262.866609,69.1457996 L260.298062,70.9802224 C260.019221,70.507745 259.684779,70.1706215 259.294737,69.9688518 C258.904695,69.7679228 258.383236,69.667038 257.728673,69.667038 C256.628469,69.667038 256.078367,70.0840287 256.078367,70.9171693 C256.078367,71.3350007 256.27381,71.6822127 256.663851,71.9596461 C257.05305,72.2379201 257.714352,72.5086278 258.647756,72.7726098 C260.234881,73.2307951 261.348563,73.7940688 261.988805,74.4607495 C262.643367,75.1417222 262.971069,76.0866769 262.971069,77.2956136 C262.971069,78.6298157 262.532167,79.6790181 261.655205,80.4432207 C260.778243,81.2074234 259.538197,81.5891044 257.937594,81.5891044 C256.586348,81.5891044 255.455817,81.4049896 254.543473,81.0367599 C253.631972,80.6693709 252.84178,80.0674247 252.172896,79.234284 L254.762503,77.420879 C255.459187,78.2826037 256.419549,78.7130457 257.645274,78.7130457 C258.257715,78.7130457 258.721047,78.6020723 259.034428,78.379285 C259.346967,78.1573383 259.503658,77.851321 259.503658,77.4620736 C259.503658,77.0450829 259.315798,76.7054373 258.940077,76.4406146 C258.633435,76.2043759 257.916534,75.8991992 256.78853,75.5234032 C255.326926,75.0517665 254.265474,74.4573867 253.60333,73.741945 C252.942028,73.0265033 252.611798,72.0916371 252.611798,70.938187 C252.611798,69.6603123 253.046488,68.6489418 253.916711,67.9057567 C254.786934,67.1625717 256.043828,66.7909792 257.687395,66.7909792 C260.110202,66.7909792 261.835484,67.5753589 262.866609,69.1457996" id="Fill-27" fill="#FFFFFF"></path>
                <mask id="mask-2" fill="white">
                    <use xlink:href="#path-1"></use>
                </mask>
                <g id="Clip-30"></g>
                <polygon id="Fill-29" fill="#FFFFFF" mask="url(#mask-2)" points="265.268777 81.380441 268.736189 81.380441 268.736189 66.9984657 265.268777 66.9984657"></polygon>
                <path d="M276.525987,75.3571113 L275.126723,75.3571113 L275.126723,78.5047185 L276.776186,78.5047185 C278.30771,78.5047185 279.073473,77.9767545 279.073473,76.9199857 C279.073473,76.350827 278.875503,75.9481284 278.478722,75.711049 C278.081941,75.475651 277.430748,75.3571113 276.525987,75.3571113 L276.525987,75.3571113 Z M276.275787,69.8546838 L275.126723,69.8546838 L275.126723,72.4810526 L276.588326,72.4810526 C277.938729,72.4810526 278.614352,72.0573362 278.614352,71.2090628 C278.614352,70.7374262 278.444183,70.393577 278.103002,70.1775153 C277.761821,69.9622943 277.152749,69.8546838 276.275787,69.8546838 L276.275787,69.8546838 Z M271.659311,81.3807772 L271.659311,66.998802 L276.692786,66.998802 C280.284876,66.998802 282.081764,68.2707917 282.081764,70.8130898 C282.081764,72.0918052 281.530819,73.0922466 280.431458,73.8152546 C281.837461,74.5096786 282.540884,75.6555623 282.540884,77.2537464 C282.540884,78.5324618 282.088503,79.5396288 281.183741,80.2760882 C280.278137,81.0133883 278.934473,81.3807772 277.152749,81.3807772 L271.659311,81.3807772 Z" id="Fill-31" fill="#FFFFFF" mask="url(#mask-2)"></path>
                <polygon id="Fill-32" fill="#FFFFFF" mask="url(#mask-2)" points="284.629334 66.9988861 288.096746 66.9988861 288.096746 78.5048025 293.735923 78.5048025 293.735923 81.3808613 284.629334 81.3808613"></polygon>
                <polygon id="Fill-33" fill="#FFFFFF" mask="url(#mask-2)" points="296.764264 75.6279871 292.273309 66.9989701 296.263022 66.9989701 298.497969 71.9389647 300.732074 66.9989701 304.721788 66.9989701 300.230833 75.6279871 300.230833 81.3809454 296.764264 81.3809454"></polygon>
                <polygon id="Fill-34" fill="#FFFFFF" mask="url(#mask-2)" points="305.034495 81.380441 308.710827 81.380441 308.710827 77.7124362 305.034495 77.7124362"></polygon>
                <path d="M124.973818,39.6249606 L124.973818,47.4258812 L128.838853,47.4258812 C132.012259,47.4258812 133.598541,46.1303516 133.598541,43.5401333 C133.598541,40.9297379 132.012259,39.6249606 128.838853,39.6249606 L124.973818,39.6249606 Z M128.838853,49.6714097 L124.973818,49.6714097 L124.973818,57.2419765 L122.493726,57.2419765 L122.493726,37.3794321 L128.838853,37.3794321 C131.127716,37.3794321 132.906912,37.9216881 134.175601,39.0062002 C135.445132,40.0907123 136.079476,41.6014628 136.079476,43.5401333 C136.079476,45.4586267 135.445132,46.9609702 134.175601,48.0446415 C132.906912,49.1291536 131.127716,49.6714097 128.838853,49.6714097 L128.838853,49.6714097 Z" id="Fill-35" fill="#FFFFFF" mask="url(#mask-2)"></path>
                <polygon id="Fill-36" fill="#FFFFFF" mask="url(#mask-2)" points="140.579192 37.3795162 143.059284 37.3795162 143.059284 54.9965321 152.57866 54.9965321 152.57866 57.2420606 140.579192 57.2420606"></polygon>
                <path d="M165.501423,50.4486433 L162.357502,41.1218395 L159.213581,50.4486433 L165.501423,50.4486433 Z M158.43434,52.6933311 L156.905343,57.2423969 L154.280354,57.2423969 L161.203383,37.3798525 L163.510779,37.3798525 L170.433808,57.2423969 L167.808819,57.2423969 L166.279822,52.6933311 L158.43434,52.6933311 Z" id="Fill-37" fill="#FFFFFF" mask="url(#mask-2)"></path>
                <polygon id="Fill-38" fill="#FFFFFF" mask="url(#mask-2)" points="177.183382 48.7213266 170.981467 37.379348 173.895407 37.379348 178.424271 46.0150907 182.952292 37.379348 185.866232 37.379348 179.664317 48.7213266 179.664317 57.2418924 177.183382 57.2418924"></polygon>
                <path d="M200.54789,39.6249606 L200.54789,46.6196431 L204.412925,46.6196431 C206.105352,46.6196431 207.32181,46.3464133 208.062299,45.7991131 C208.801946,45.2526535 209.172612,44.3648669 209.172612,43.1365939 C209.172612,41.8889846 208.801946,40.9919502 208.062299,40.4454907 C207.32181,39.8981904 206.105352,39.6249606 204.412925,39.6249606 L200.54789,39.6249606 Z M207.730385,48.4338889 L212.172479,57.2419765 L209.403436,57.2419765 L205.250293,48.8651716 L200.54789,48.8651716 L200.54789,57.2419765 L198.067797,57.2419765 L198.067797,37.3794321 L204.412925,37.3794321 C206.759072,37.3794321 208.552589,37.8687236 209.792635,38.8473066 C211.033524,39.8258896 211.653547,41.2559322 211.653547,43.1365939 C211.653547,45.8999979 210.345265,47.6663234 207.730385,48.4338889 L207.730385,48.4338889 Z" id="Fill-39" fill="#FFFFFF" mask="url(#mask-2)"></path>
                <polygon id="Fill-40" fill="#FFFFFF" mask="url(#mask-2)" points="216.902767 57.2420606 219.383701 57.2420606 219.383701 37.3795162 216.902767 37.3795162"></polygon>
                <path d="M231.989461,49.4983921 L231.989461,47.2537044 L239.229241,47.2537044 L239.229241,48.4046323 C239.229241,51.4370626 238.599109,53.7061309 237.340529,55.2126779 C236.080265,56.7192249 234.268214,57.4724984 231.902691,57.4724984 C227.094985,57.4724984 224.691554,54.4501566 224.691554,48.4046323 L224.691554,46.2171126 C224.691554,40.1715883 227.094985,37.1492465 231.902691,37.1492465 C233.902603,37.1492465 235.517527,37.6915026 236.748306,38.7760146 C237.979086,39.8605267 238.748218,41.4578701 239.056544,43.5688854 L236.633737,43.5688854 C236.056677,40.7861451 234.479662,39.394775 231.902691,39.394775 C230.3063,39.394775 229.119327,39.9412346 228.340086,41.0358351 C227.561688,42.1287543 227.172488,43.8564072 227.172488,46.2171126 L227.172488,48.4046323 C227.172488,50.7653376 227.561688,52.4921499 228.340086,53.5859098 C229.119327,54.6805103 230.3063,55.2269699 231.902691,55.2269699 C234.863807,55.2269699 236.469464,53.3177242 236.719664,49.4983921 L231.989461,49.4983921 Z" id="Fill-41" fill="#FFFFFF" mask="url(#mask-2)"></path>
                <polygon id="Fill-42" fill="#FFFFFF" mask="url(#mask-2)" points="244.248563 37.3795162 246.728656 37.3795162 246.728656 45.8429139 255.267451 45.8429139 255.267451 37.3795162 257.747544 37.3795162 257.747544 57.2420606 255.267451 57.2420606 255.267451 48.0876017 246.728656 48.0876017 246.728656 57.2420606 244.248563 57.2420606"></polygon>
                <polygon id="Fill-43" fill="#FFFFFF" mask="url(#mask-2)" points="261.469283 39.6249606 261.469283 37.3794321 276.065097 37.3794321 276.065097 39.6249606 270.007236 39.6249606 270.007236 57.2419765 267.526301 57.2419765 267.526301 39.6249606"></polygon>
                <polygon id="Fill-44" fill="#FFFFFF" mask="url(#mask-2)" points="277.189057 57.2420606 280.53516 57.2420606 280.53516 53.9027722 277.189057 53.9027722"></polygon>
                <polygon id="Fill-45" fill="#FFFFFF" mask="url(#mask-2)" points="25.4368671 49.5663213 18.8819766 51.0636205 16.8264654 42.7473465 28.2143345 39.5316421 36.0471801 39.5316421 36.0471801 78.6169529 25.4368671 78.6169529"></polygon>
                <path d="M62.1013745,51.3405494 L62.1013745,51.2295761 C62.1013745,49.0672776 60.2682628,47.1269257 57.3239957,47.1269257 C54.3797287,47.1269257 52.5457746,49.0117909 52.5457746,51.1740894 L52.5457746,51.2850627 C52.5457746,53.7247946 54.4353285,55.5541731 57.3239957,55.5541731 C60.2126629,55.5541731 62.1013745,53.7802812 62.1013745,51.3405494 M62.9345305,66.8633641 L62.9345305,66.7523908 C62.9345305,64.258013 60.6010198,62.5396078 57.3239957,62.5396078 C54.0461293,62.5396078 51.7126186,64.258013 51.7126186,66.7523908 L51.7126186,66.8633641 C51.7126186,69.1921226 53.7125299,71.2434477 57.3239957,71.2434477 C60.9346191,71.2434477 62.9345305,69.1921226 62.9345305,66.8633641 M41.3247052,67.91677 L41.3247052,67.8057967 C41.3247052,63.0936337 43.8241731,60.266336 47.9907954,58.4924441 C44.9909284,56.8286849 42.6574178,54.2788205 42.6574178,50.0651968 L42.6574178,49.9542235 C42.6574178,43.7456021 48.6023943,39.1435717 57.3239957,39.1435717 C66.0455972,39.1435717 71.9897313,43.7456021 71.9897313,49.9542235 L71.9897313,50.0651968 C71.9897313,54.2788205 69.6562206,56.8286849 66.6563536,58.4924441 C70.6005764,60.3218227 73.3232863,62.9271738 73.3232863,67.75031 L73.3232863,67.8612833 C73.3232863,74.7912314 66.6563536,79.2822884 57.3239957,79.2822884 C47.9907954,79.2822884 41.3247052,74.6802581 41.3247052,67.91677" id="Fill-46" fill="#FFFFFF" mask="url(#mask-2)"></path>
                <polygon id="Fill-47" fill="#FFFFFF" mask="url(#mask-2)" points="85.7865922 47.8152967 91.8629866 47.8152967 91.8629866 55.5027218 99.6082203 55.5027218 99.6082203 61.3952374 91.8629866 61.3952374 91.8629866 69.0826625 85.7865922 69.0826625 85.7865922 61.3952374 78.0413585 61.3952374 78.0413585 55.5027218 85.7865922 55.5027218"></polygon>
            </g>
        </g>
    </g>
</svg>